<?xml version="1.0" encoding="UTF-8"?>
<svg version="1.1" viewBox="0 0 2048 1925" width="751" height="706" xmlns="http://www.w3.org/2000/svg">
<path transform="translate(1700,826)" d="m0 0h39l4 2 10 1 8 3 13 5 17 9 18 12 20 20 10 15 11 22 4 11 2 12 1 2 1 15 1 2v19l-2 22-5 19-7 22-3 3-6 11-4 5h-2l-1 5-8 7-3 5-2 7 7-1 10-4 12-3 8-1 1-1 8-1h32l15 3 19 9 15 10 13 13 9 14 7 15 2 6 3 14v38l-2 5-1 7-3 8-4 10-11 16-12 12-10 6-11 5-15 5-16 1-9-2-9-1-19-8-14-9-5-4-10-6-16-8-18-5h-2v5l2 4 6 2 2 1v-2l6 2 6 4v3h3l2 4 2 1v2l3 1v2h2v2l7 2 4 5 6 11 10 19 3 9 3 17v14l-3 22-5 19-5 12-9 17-9 13-7 7-16 14-14 9-16 8-16 5-11 2h-31l-20-4-16-5-16-8-14-11-9-11-8-14-6-11-5-5-1-3 2-1h25v2l4 2 8 7 9 10 5 6 8 5 5 3 10 5 5 2h44l8-3 11-4 9-5 9-6 9-7 6-5 8-11 8-14 5-13 3-14v-31l-2-4-2-7-5-10-11-12-10-7-14-6-19-5-29-1-19 3-22 4-26 9-16 8-14 9-7 6-8 6-9 9-8 7-2 7 7-3 16-9 17-7 10-3 9-1 1-1 18-2 4-1h23l8 2 13 1 10 3 16 8 10 7 8 9 7 11 3 6 1 7v12l-1 9-7 13h-2v2l-7 4-4 4-12 1v2l-7 4-11 4h-20l-8-5-8-9-4-12v-9l4-12 11-11 10-5h19l9 5 7 8 6 13 7 1v-11l-4-12-6-9-7-7-6-4-16-8-13-3-2-1-46 1-15 4-7 2-12 6-13 8-7 4-10 8-6 3-9 8-6 4-8 6-15 10-16 8-8 1-2 2-15 6h-4v2l-5 4-11-1-1 3-21 11-11 4-8 4-12 1-16 8-16 10-3 3-16 8-6 7-1 2-5 3-9 9-7 8-2 3h-2l-1 3-5 4h-2l-1 4-5 5-7 8-1 8 9 2 4-2v-2h2v-2l11-9 10-8 17-13 19-14 12-8 13-8 15-8 15-5 9-4 8-2 21-5 2-1 14-1 5-2h44l3 2 9 1 16 6 16 8 15 9 5 4 8 6 16 16 11 19v10l-5 1-16-8-8-7-5-6-8-4-12-9h-8l-2 2 1 4 9 10 5 10v7l-4 4h-9l-15-6-8-3-8-1-3 2v7l1 2v13l-5 5-4 2h-6l-4-6v-10l1-5-6-7-9-7-9-6-18-4h-35l-18 4-33 7-23 8-18 8-4 3-6 1-26 15-15 9-5 1-2 6 12-5 13-4 30-11 13-5 16-4 1-1 28-2 12 1 21 1 6 2 9 2 11 4 8 4 14 9 20 20 8 13 7 16v7l-6 7-6 2h-7l-3-4-3-13-4-10-7-11-5-6-13-9-23-9-17-4-7-1h-36l-18 2-13 2-30 10-1 3v4h14l18 1 13 3 17 9 6 5-1 4-3 3-16 5-3 3h-10l-13-4-15-1h-30l-18 2-26 5-20 5-20 6-29 11-21 9-1 2v6l5-1 17-1h21l16 4 19 8 4 5-1 6-10 9-4 3-5-1-3-3-7-1-17-1h-65l-23-2v-3h-6l-1-2 16-5 4-2 1-7-53 5-16-1-17-3-18-5-10-5-12-11-7-9h-4l-3 8-5 4h-4l-3 6-2 2-6-1-1 4-13 4-17 4h-61l-21-3-28-7-22-6-24-10-25-11-24-8-27-7-5-1-28-2h-20l-17 2-10 2h-9l-3-2-13-4-3-3 2-4 7-7 12-6 11-3 1-1 31-2v-4l-18-7-20-6-9-2-28-1-25 1-19 4-18 6-10 5-9 8-9 14-2 5-3 18-3 5-3 1h-9l-6-4-2-2v-14l7-14 7-10 12-13 13-12 16-8 10-4 14-3 6-2h50l5 2 7 1 33 11 24 9 6 1-1-7-11-6-23-12-16-8-36-12-26-7-21-3-15-1-27 3-15 5-6 4-6 7-2 3-2 15-6 9-7-1-5-6-3-8 1-3v-15l-2 1-9 1-13 6-9 3-8-1-4-5v-8l4-7 4-5 6-5 1-10-13 4-9 5-4 4-4 2h-4l-2 5-11 9-8 6-2 1h-7l-4-1 1-10 9-14 11-12 6-8 10-10 11-8 17-11 6-3 10-2 2-1 35-1 5-1 5 1 25 1 3 2 10 1 6 2 17 4 9 3 17 6 13 4 16 8 12 8 13 10 7 6 11 9 10 8 16 12h8v-8l-6-9-10-12-7-8-10-10-15-10-19-12-8-7-8-8-11-17-8-12-8-10-11-19-6-15-2-9v-51l3-5 2 1 2 5 8 10 6 4 12 9 11 8 11 11 2 1v-5l8-4 8-6 1-1h5l5 8 3 8 3 16 2 13 1 30h3l1-3 1-11 5-15 5-7 2-1 15-1 2-1 8 4 1 2v18l-2 6v32l2 6 1 16 3 13 3 8 5 17 10 24 7 14 9 12 7 9 34 34 11 9 15 10 16 10 27 13 31 11 40 4h24l22-1 10-2-2-9-5-5v-2l-4-2-9-7-15-8-10-5-1-2 8-3h10l12 6 10 7 2 2 4 1-2-10-9-14-8-10-10-8-9-6-10-4 2 4v3l-7 1-14-5-5-2-9-2-10-6-22-11-29-8-32-2-12-2-10-4-10-6-6-4-3-5 2-5 5-6 4-2 2-7-1-2-8-4-11-4-9-6-7-7-2-4v-11l5-5 3-2h19l-4-7-4-8-5-15-3-12v-17l1-1h8l-1-7v-11l2-8 8-16 4-5 7-8 5-4 12-9 12-6 8-2 3-1h15l13 5 9 8 6 12v12l-6 7-6 3-2-2-8-2-7-7-1-5 4-1 10 1 6 2-5-10-12-6h-7l-7 4-3 6v3h-2l-1 7-4 11v31l5 10 7 6h10l9-5h2l-1 14-2 5v39l4 13 1 8h4l-2-5 1-15 3-10 6-11 13-13 12-2 1 1 10 1 8 5 4 4-1 4-3 3-8 4-9 8-5 10-1 10v19l2 6 2 9 5 12 9 12 8 8 8 6 10 10 1 2h5l-6-9-1-5 1-1h8l5 2h10l-2-10-6-12-4-4-16-8-4-4 1-5 3-3 5-2h9l1 1 9 1 18 9 11 8 8 13 8 18 7 14 6 1-3-27-3-11-8-13-8-10-7-8-6-6-7-4-9-7-7-4-13-7-1-4 6-8 8-8 6-3h11l13 7 14 14 5 8 7 14 6 18 5 21 2 15 1 2 7 1 3-18 6-22 7-19 8-16 7-10 7-7 7-4 9-4h11l10 6 11 12-1 4-8 8-16 7-12 7-7 8-8 12-4 8-12 31-3 14h7l3-9 7-13 4-5 7-11 4-6 9-9 14-7h16l3 1 5 6v6l-16 5-8 5-8 8-7 8-3 7-1 14 10-1 7-2 5-2 5 1h7l8-4 9-11 5-8 5-6 11-23 3-9 3-16v-21l-2-5-7-7-8-5-5-6 2-3 10-5h20l10 6 5 6 3 8v7h2v22l-4 16v2l3-1 7-16 7-14 3-11v-24l-2-4-2-9-3-8v-7l2-1 8 6 8 5 10 5 4-1 3-3 2-4 3-15v-29l-3-12-6-9-1-3 4 2v-6l-3-3-11-4h-7l-8 3-1 4 8 7 1 2v11l-6 6h-12l-5-5-3-8 1-10 2-7 4-7 7-7 10-5 18-1 12 1 15 8 9 7 19 19 4 7 7 13 3 10 1 15 4 4v5l-2 5-1 7-4 8-3 9-7 14-4 5 21 1 12 5 3 3-1 7-4 7-2 7-7 4-14 7-11 4h-2l1 7 6 7v12l-6 9-10 5-48 1-27 5-28 9-12 5-32 15-7 3-16 2-10 5-12 10-6 12v6l1 4-1 2 7-2 10-6 6-3 12-1 5 2-4 4-3 2-1 3-12 6-9 7-6 5-3 6 2 6 7 3h57l8-2 9-1 20-6 13-6 18-7 17-9 13-8 11-7 18-13 11-12 9-7 14-12 10-13 9-13 4-8 7-9 5-10 9-25 3-14 2-11 1-4 2-25v-25l-1-3-1-23 2-2 7 1 17 9 4 7 2 11 1 1 2 23 1 2h3v-26l3-22 2-10 2-6 1-13 3-6 4 2 13 13 3 2h3l4-6 9-8 17-9 11-6 10-7 7-7 3-5 3 1 3 13v11l-1 11-1 2-1 13-2 3-3 12-7 17-8 13-11 16v6l11-4 11-5 1 3h2l1-5h2v-2l16-8 9-6 3-1v-2l8-7 14-12 22-22 9-7 7-9 7-8 13-18 7-11 20-28 8-16 6-13 7-20 4-10 2-10 1-3 2-19v-17l-3-20-5-16-5-10-9-11-7-6-10-4h-16l-7 3-5 5-3-1-1-6 2-12 6-12 6-8 8-8 10-5h26l12 5 8 7 8 10 7 9 7 1-2-12-2-3v-3l-4-1-3-9-4-4v-2l-4-2-3-3-1-3-13-9-23-11-7-8v-2l4 1 15 5-3-6-10-14-5-11-6-20-2-12v-26l4-16 4-13 8-14 9-12h2l2-4 9-9 8-6 11-7 19-9 13-4 1-1 13-2zm5 19-21 6-15 6-16 10-8 8-12 20-4 9-4 10-2 9v20l3 19 7 23 7 16 6 9 6 7 7 8 6 7 4 6 8 13 8 16 5 14 2 6 3 26v8l-3 18-1 1-2 12-8 28-9 22v5l5 1 5-4-3 5-7 9-3 3-2-1-8 5-3 6-8 8-6 10v5l6-1 8-7 7-6v-2l3-1v-2l3-1 4-5 10-7 20-13 28-15 14-7 16-7 10-6 16-6 26-1 16 1 30 10 13 3h6v2l-7 2-8 5v9l1 1h8l18-4 10-5 5-5 4-5 3-7 1-6v-13l-3-11-6-10-9-9-14-7-6-2-7-1h-14l-12 1-14 4-12 2-18 7-21 9-5 4-7 4-4 5-12 9-15 10-13 9-8 6-13 8-10 5-3-1 1-6 7-10 12-12 6-9 7-10 9-14 7-9 4-7 2-5 3-3 4-7 7-10 5-17 5-15 6-20 1-6v-31l-1-11-3-12-5-12-6-9-5-5h-5l1 7 2 10-3 9-5 9-7 8-5 4-12 3-7-1-10-2-16-8-6-7-4-9-1-11 2-5 2-11 4-9 6-8 8-5 9-3h25l17 7 10 7 13 13 9 17 5 13 3 9 1 10 2 7v19l-3 24-2 12 5-1 9-14 8-17 5-16 2-14v-25l-2-22-3-13-8-19-7-11-9-11-7-6-6-4-10-5-21-7-8-1h-23l-7 1-12 5-9 6-12 12-8 13-8 11-6 7-3-4-1-2v-18l4-10 6-10 14-14 18-10 14-5 11-2h20l20 4 21 7 10 6 13 10 11 11 7 11 6 13 6 20 3 17v37l-5 30v2h6l3-6 5-18 2-17v-26l-2-18-5-19-7-16-8-14-8-10-9-10-10-8-16-9-16-6-15-4-10-2zm-37 374m135 19m7 4m-991 89v2h2v-2z" fill="#C7A36C"/>
<path transform="translate(1026,87)" d="m0 0h3l6 13 8 15 6 10 9 12 16 17 10 9 10 10 9 6 4 5-1 4-7 4-11 9-8 7-10 11-12 21-6 15-1 9 15 15 5 10 8 11 13 7 11 2h9l8-2 10-4 14-3h8l9 3 2 1 12 1 21 9 10 7 5 4 5 5v2h2l6 8 8 11 7 13 2 1v-2l9-6 12-5 10-3h35l4 2 12 1 19 9 14 9 11 8 11 11 10 15 6 12 5 15 1 7 4 14v49l-1 1-3 17-7 23-11 22-9 14-6 8-11 14-9 10-10 9-8 6-5 4v4l18 10 5 6 3 9-15 15-1 5v32l4 8-1 5-7 3-34 7-43 6-66 7-49 4-19 1-8 1-40 2-7 1h-78l-28-2-34-2-73-6-49-6-39-5-24-5-18-6-3-3 4-8 2-6 1-7 1-32-10-4-5-5-2-3 1-7 5-8 8-5 12-5v-5l-6-5-8-6-11-9-11-13-8-9-13-20-8-17-5-14-5-17-2-19-1-5v-31l2-3 1-14 6-20 8-16 5-8 8-11 14-14 15-10 15-7 8-3 9-2 26-2 22 2 16 8 9 8 2-3 7-13 6-9 4-7 17-17 16-9 10-4 23-5h10l20 6 7 1 2 2h14l14-6 5-2 2-5 3-4 5-12 8-10 5-4h2l-2-13-4-13-8-16-7-10-12-13-11-10-6-4-4-3 1-5 10-7 8-8 9-7 9-10 7-8 8-10 10-14 8-14 6-14zm45 240-2 4 2 11 1 12 2 4v91l-2 8-1 18-1 3-2 24-1 3v20l4 17 7 14 9 10 9 6 6 3h19l9-4 9-6 8-7 10-14 8-16 5-14 5-18 1-15 2-3v-54l-2-5-1-13-6-20-7-17-9-16-9-10-10-7-7-1-2-2-39-1-5-4-3-1zm-99 3-2 2-38 1-10 5-9 7-8 11-8 15-8 24-4 22-2 18v40l3 22 7 24 8 20 9 16 8 11 7 6 10 7 4 2 9 1 9-2 11-8 5-5 4-5 7-11 6-18 2-18v-18l-1-6-1-19-2-13-1-21-2-2v-66l1-11 1-3 1-13 2-10-1-2-5-2-1-1zm297 53-17 3-3 2v16l2 10 1 31-1 29-1 1-4 21-9 27-11 28-4 11v10l11 11 6 3 12 1 13-2 19-9 14-10 8-7 10-14 6-11 5-13 3-12 2-9 2-18v-32h-2v-15l-4-15-8-16-11-12-9-6-10-3zm-503 2-12 6-10 11-7 14-5 14-4 21v17l1 24 3 20 3 9 3 6 1 5 6 15 6 8 7 8 12 12 11 6 10 5 18 2 12-2 2-2 6-2 7-7 3-5 1-9-3-10-7-12-6-13-6-21-6-26-2-11v-52l2-11 1-10-1-4-16-5-4-1z" fill="#C7A26B"/>
<path transform="translate(316,826)" d="m0 0h27l6 2 11 2 16 5 16 8 10 6 18 14 7 8 7 10 9 16 6 14 3 12 1 14-1 14-7 25-7 14-8 12-1 5 3 1 14 1-5 5-16 9-15 8-8 6-8 8-9 16-4 10-2 8h8l2-5 6-8 13-12 14-7h27l9 4 8 6 6 9 3 7 1 6 1 1v13h-6l-8-3h-17l-9 3-4 3h-2l-2 4-4 7-7 11-7 14-2 12-1 7v24l1 3 1 16 2 4 2 7 7 18 8 17 8 16 6 11 8 13 10 13 6 9 6 7 15 20 9 11 10 13 11 9 13 12 10 10 10 8 9 8 6 4 8 7 11 7 4 3v2l4 2 2 4h2v2l-6-2-17-9-9-6-3-1 1 7-2 1-23-11-18-8-13-5-17-9-18-13-11-9-12-10-5-3-5-2-4-6-5-3-3-2h-4l-1-3-5-2-6-2-7-2-18-5-10-1h-12l-16 1-11 2-16 3-12 6-9 8-7 9-4 11-1 7 1 7h7l3-9 3-5 10-10 8-3h15l10 5 9 9 4 8 2 8-3 19-8 10-11 4-6 1h-10l-9-3-10-6-4-7h-15l-6-4-4-7-4-13v-16l6-17 10-13 13-10 11-6 15-4 1-1h56l10 3 1 1 10 2 17 5 28 13 6 2v-12l-4-1-4-3-1-4-6-5-11-7-10-7-7-5-21-10-10-5-17-6-19-4-16-1h-16l-21 1-21 5-12 5-11 8-8 9-6 11-3 8-3 24 2 11 1 13 5 12 7 13 9 12 11 11 10 7 14 8 13 5 8 2h36l1-1 10-2 9-3 9-6 9-7 8-10 9-7 6-4 5-2 10-1h7l10 5 1 3-6 4-7 2-4 6-2 8-7 7-6 8-11 8-7 5-16 8-13 6-15 4h-38l-16-3-17-5-16-8-13-9-13-11-9-11-8-11-8-12-1-4-5-10-3-10-1-11-2-4-1-29 3-20 5-15 9-16 7-9 16-16 18-11 13-6 8-3 16-3h18l-1-2h-27l-14 2-17 4-17 6-11 6-10 7-18 11-14 6-2 3 14 2 1 4-7 19-6 12-4 5-8 7-10 6-7 2-1 1h-18l2-5-4 2-16 1-9-1v-7l-8 1-13-2-7-4v-2l13-3 9-4 16-10 15-10 12-6v-6l-7-5-9-3-15-10-16-16-8-13-5-11-5-17-2-9v-23l5-24 9-19 7-10 13-15 17-12 17-8 10-3 10-1 2-1h19l1 1 13 1 3 2 8 2 14 6 13 7-1-8-3 1-5-8-13-24-11-24-6-22-2-9-2-21v-17l1-4 1-14 5-19 7-17 8-13 8-11 23-23 15-10 15-8 14-5 12-3 14-2zm0 19-21 4-18 6-15 8-11 9-12 11-10 13-9 16-7 17-4 19-2 19v18l3 23 7 1 1-1 1-51 2-10 1-11 4-7 4-11 10-18 10-12 11-9 11-7 19-8 16-5 6-1h22l17 4 18 8 8 6 9 10 7 11 5 15v10l-5 12-3-1-5-12-8-15-12-13-12-8-17-6-4-1h-22l-19 5-15 8-10 9-5 4-9 11-5 8-7 16-5 21-1 6v39l4 18 5 16-1 5 8 8h8l-1-5-1-2v-41l4-17 5-15 8-16 9-11 12-11 13-6 12-3h13l12 3 10 5 9 8 6 12 3 9v13l-4 10-7 10-9 6-9 4h-19l-10-5-11-10-6-10-3-9-1-9-5 1-5 8-6 16-2 9-1 13v17l1 14 3 7v3l2 9 3 9 5 13 2 3 3 9 8 15 5 8 7 11 7 8 8 10 10 13 10 15-2 1 7 8 4 7 6 9-13-8-23-13-10-7-5-1v-2l-6-5-4-1-1-2-6-1v-2h-2v-2l-5-2-5-5-5-1-4-6h-4l-16-9-6-4-17-6-9-2-1-1-18-3h-23l-19 4-10 6-10 10-6 12-1 4v17l3 10 6 9 9 7 6 3h17l1-1v-7l-7-5 11-5 27-8 13-3h34l21 6 20 9 27 14 23 12 15 10 12 9 9 8 10 8 11 10 4 4 18 22 4 2 7-1-2-5-10-14-13-18-9-12-8-10-8-12-7-9-6-9-5-12-5-7-1-14-4-12-2-19v-20l2-19 2-6 2-10 6-16 9-17 10-14 10-13 12-20 8-15 8-24 2-16-1-14-2-13-7-16-9-13-7-9-10-8-14-9-12-5-16-4-11-2z" fill="#C7A36C"/>
<path transform="translate(1182,793)" d="m0 0h170l1 5-1 12-3 2-10 2-8 3-6 3-9 7-4 6-2 2-1 152-2 4-1 31 5-5 7-8 7-7 7-10 3-3 3-5 5-6h2l2-4 7-7 4-6 13-13 8-11 14-14 11-14 10-10 6-8 10-11 4-6 17-17 6-9 6-10-1-4-4-8-5-6-8-6-15-6-8-1-4-4 1-7 2-2 13-1h136l1 1v11l-3 4-16 5-11 4-12 8-13 10-56 56-11 14-15 15-6 9-17 17-7 9-10 10-1 2h-2l-2 4-8 7-2 5 1 4 12 12 6 9 4 5 16 22 8 10 4 6 5 6 8 11 6 8 7 10 8 12 15 20 4 5 4 7 5 6 8 12 5 6 7 9 15 20 6 7 7 9 14 14 17 9 8 2 1 1 9 1 1 1v13l-3 5h-10l-7-1h-35l-15 1h-107l-2-12-1-7 12-1 13-5 5-4 2-5v-8l-3-8-10-14-3-5-7-9-7-8-6-8-8-10-8-11-7-10-8-10-11-15-6-7-3-5-7-10-12-18-5-11-1-8-8 7-12 12-3 5v123l3 23 5 8 6 5 7 3 24 4 1 5-1 13-3 1h-165l-3-6v-11l8-2 9-1 13-7 8-7 7-10 3-5 2-22 1-46-1-180-1-15-1-90-7-13-12-12-13-6-15-5-2-2 1-12z" fill="#C7A36C"/>
<path transform="translate(669,780)" d="m0 0h32l5 10 8 21 6 19 4 17 11 33 12 35 5 15 6 16 6 22 7 23 8 21 6 16 5 17 13 40 9 28 12 38 9 26 10 23 7 13 1 3 5 2 21 11 1 2v15l-162 1-2-3v-14l1-3 14-1 10-4 5-4 6-9 2-5v-16l-9-31-7-21-2-8-3-11-2-5-12-1h-10l-12 1h-77l-22-2h-9l-9 30-6 17-4 12-4 16-1 3v9l3 11 4 6v2l4 2 8 5 11 3h9l1 3v19l-3 1-4-2h-23l-25 1h-21l-18-1-38-1-4-6-1-5v-7l1-1 22-1 13-7 5-4 1-2h2l2-4 6-8 10-19 6-15 10-28 5-15 10-24 10-28 11-34 7-20 9-22 24-72 8-30 6-21 5-17 5-11 7-1-5-12 1-10-4-3 2-4 9-9 5-9 3-10 4-5zm-11 142-3 3-4 12-4 8-5 15-3 8-3 9-2 10-3 8-8 22-4 9-5 13-2 7-1 1-1 8-4 9-1 12 78 2 23 1 7-3-2-12-3-11-4-13-3-10-14-41-6-15-6-20-3-7-2-9-6-15-1-1z" fill="#C7A26C"/>
<path transform="translate(973,793)" d="m0 0h160l3 3 1 7-3 6-7 2-1 1-9 1-14 8-8 8-3 6v105l1 16v40h-2l1 62 1 3v111l-3 30-3 14-5 13-4 9-6 10-6 8-12 12-11 8-10 6-14 7-9 3-14 3h-30l-17-5-14-7-10-8-7-10-7-15-3-24 1-10 3-9 12-11 4-1-1-4 1-2h2v2l4-1 1-2h7l3-2 6 1h4l12 3 8 4 7 8 5 10-1 7-9 17-6 8-7 8-8 7-1 5 5 4 9 2h17l8-3 6-5 5-7 4-14 2-16 1-30-1-80-2-73v-174l-1-29-5-9-13-13-11-4-21-6-1-2v-7l3-4z" fill="#C7A26C"/>
<path transform="translate(1020,1640)" d="m0 0 8 2 8 4 7 9 5 13 1 10 2 4 9 2 1-5 9-5 18-5 25-1 15 1 17 4 12 5 11 6 9 6 2 5-9 3h-14l-1-1-16-2-6-1h-50l-23-1h-18l-13 5-2 2 1 7 1 13h2l2 4 2 8 2 9 6 10 7 12v3l-4 4-8 16-9 14-4 5-5-1-4-7-11-16-9-11-4-6 8-13 8-15 3-13 1-22-3-5-10-4-4-4-2-4v-12l1-6-1-3 6-11 8-9 4-2z" fill="#C7A36C"/>
<path transform="translate(1017,1339)" d="m0 0 4 2 4 10 6 11 29 29 3 7v9l-3 11-8 15-10 15-10 20-6 24-4 19h-2l-1-25-1-5-5-2-8-18-6-16-12-24-3-9v-15l6-11 19-19 5-10 2-6z" fill="#C7A36C"/>
<path transform="translate(796,1640)" d="m0 0h3l1 3 32 1 6 2 9 1 40 12 10 4 1 2 8 2 33 2 23 6 12 5 6 4 3 4 3 2-16 3-53 1-25 3-13 2-10-3v-3l6-8 13-8-2-8-85 1-11 3-4 1-9-6-5-3-10-4-1-5 8-7 11-5z" fill="#C8A46F"/>
<path transform="translate(884,973)" d="m0 0h8l9 5 11 8 23 23-1 3-8 5-20 20-7 9-6 6h-13l-7-5-7-8-9-10-10-11-2-3v-9l7-11 8-7 10-8z" fill="#C7A36D"/>
<path transform="translate(1852,1268)" d="m0 0 11 1 12 2 11 3 20 1 13 2 6-1 5 3 5 4 6 10 13 8 15 7 5 1-1 3-4 2h-17l-4-1 4 4-2 4-1 1h-18l-1-1-12-1 2 4-5 1v2l-5-1-12-2-12-7-8-7-12-19-10-17z" fill="#C7A36C"/>
<path transform="translate(1163,973)" d="m0 0 6 2 8 6 8 8 7 10 5 8v6l-5 8-4 5-4 6-6 5h-2l-2 4-10 6-5-1-12-10-8-7-15-15-1-5 5-9 18-18 10-6z" fill="#C7A36D"/>
<path transform="translate(1471,1570)" d="m0 0h11l7 3 5 4 6 11 1 10-3 6-6 5-2 1h-15l-10-3-6-5-3-9 2-9 5-8 6-5z" fill="#C7A36C"/>
<path transform="translate(568,1569)" d="m0 0 13 3 7 7 1 3v12l-5 10-10 6h-14l-9-6-4-8v-11l4-8 6-4z" fill="#C7A36D"/>
<path transform="translate(1083,1546)" d="m0 0 2 2h-2z" fill="#D9C09C"/>
<path transform="translate(933,1187)" d="m0 0 2 1-2 1z" fill="#FEFEFE"/>
<path transform="translate(1792,1231)" d="m0 0 2 1z" fill="#C7A26B"/>
<path transform="translate(274,1142)" d="m0 0" fill="#C7A26B"/>
<path transform="translate(1813,1243)" d="m0 0" fill="#C7A26B"/>
<path transform="translate(1791,1230)" d="m0 0" fill="#C7A26B"/>
<path transform="translate(350,1174)" d="m0 0" fill="#C7A26B"/>
<path transform="translate(349,1173)" d="m0 0" fill="#C7A26B"/>
<path transform="translate(282,1148)" d="m0 0" fill="#C7A26B"/>
</svg>
